<?xml version="1.0" encoding="UTF-8"?>
<svg width="29px" height="34px" viewBox="0 0 29 34" version="1.1" xmlns="http://www.w3.org/2000/svg" xmlns:xlink="http://www.w3.org/1999/xlink">
    <!-- Generator: sketchtool 55.2 (78181) - https://sketchapp.com -->
    <title>8620461F-2E9D-451E-9C86-68CB0D378611</title>
    <desc>Created with sketchtool.</desc>
    <g id="hi-fi-(Green)" stroke="none" stroke-width="1" fill="none" fill-rule="evenodd">
        <g id="Book-List_not-logged-in" transform="translate(-61.000000, -419.000000)" fill="#1A1919">
            <g id="homepage_clicked" transform="translate(61.000000, 419.000000)">
                <path d="M25.6179074,31.2189703 L19.5636919,31.2189703 L19.5636919,23.1523438 C19.5636919,21.513545 18.1201904,20.1804288 16.3455325,20.1804288 L11.9640807,20.1804288 C10.1894229,20.1804288 8.73743012,21.513545 8.73743012,23.1523438 L8.73743012,31.2189703 L2.97191501,31.2189703 C2.74265299,31.2189703 2.54735572,31.023673 2.54735572,30.794411 L2.54735572,14.4403873 L14.2397185,3.03672484 L25.9066077,13.9988456 L26.0424666,30.794411 C26.0424666,31.023673 25.8471694,31.2189703 25.6179074,31.2189703 Z M28.4454722,13.4299362 C28.4454722,13.4299362 28.4454722,13.421445 28.4454722,13.4129538 C28.4454722,13.4044626 28.4454722,13.3959714 28.4454722,13.3789891 C28.436981,13.2261477 28.4030163,13.0733064 28.343578,12.9289562 L28.3350868,12.920465 C28.2671573,12.7676237 28.1737543,12.6317647 28.0548777,12.5213793 C28.0548777,12.5213793 28.0463865,12.5213793 28.0463865,12.5128881 L15.0973282,0.345018962 C14.6048395,-0.121996253 13.8236504,-0.113505067 13.3396528,0.362001334 L0.390594544,12.9883945 C0.382103358,12.9968857 0.382103358,12.9968857 0.382103358,12.9968857 C0.263226758,13.1157623 0.169823715,13.2516213 0.101894229,13.4044626 C0.101894229,13.4129538 0.101894229,13.4129538 0.101894229,13.4129538 C0.0424559287,13.557304 0.00849118573,13.7101453 0.00849118573,13.8714778 C0.00849118573,13.879969 -4.61852778e-14,13.8884602 -4.61852778e-14,13.8969514 C-4.61852778e-14,13.8969514 -4.61852778e-14,13.8969514 -4.61852778e-14,13.9054426 L-4.61852778e-14,30.794411 C-4.61852778e-14,32.4332098 1.33311616,33.766326 2.97191501,33.766326 L10.011108,33.766326 C10.7158764,33.766326 11.2847858,33.1974166 11.2847858,32.4926481 C11.2847858,32.4501922 11.2762947,32.3992451 11.2762947,32.3567892 C11.2762947,32.3058421 11.2847858,32.2633861 11.2847858,32.212439 L11.2847858,23.1523438 C11.2847858,22.9825201 11.5480126,22.7277845 11.9640807,22.7277845 L16.3455325,22.7277845 C16.7616006,22.7277845 17.0163362,22.9825201 17.0163362,23.1523438 L17.0163362,32.212439 C17.0163362,32.2633861 17.0333186,32.3058421 17.0333186,32.3567892 C17.0333186,32.3992451 17.0163362,32.4501922 17.0163362,32.4926481 C17.0163362,33.1974166 17.5937368,33.766326 18.2900141,33.766326 L25.6179074,33.766326 C27.2567062,33.766326 28.5898224,32.4332098 28.5898224,30.7859198 L28.4454722,13.4299362 L28.4454722,13.4299362 Z" id="8I"></path>
            </g>
        </g>
    </g>
</svg>