<?xml version="1.0" encoding="UTF-8"?>
<svg width="30px" height="32px" viewBox="0 0 30 32" version="1.1" xmlns="http://www.w3.org/2000/svg" xmlns:xlink="http://www.w3.org/1999/xlink">
    <!-- Generator: sketchtool 55.2 (78181) - https://sketchapp.com -->
    <title>44C88D36-C45D-4FA3-A14D-E7CECEF15204</title>
    <desc>Created with sketchtool.</desc>
    <g id="hi-fi-(Green)" stroke="none" stroke-width="1" fill="none" fill-rule="evenodd">
        <g id="Book-List_not-logged-in" transform="translate(-60.000000, -662.000000)" fill="#FFFFFF" fill-rule="nonzero">
            <g id="settings_normal" transform="translate(60.000000, 662.000000)">
                <g id="设置">
                    <path d="M29.6323529,9.95588235 C30.0441176,11.0147059 29.8088235,12.25 29.0441176,13.0735294 C27.5735294,14.6617647 27.5735294,17.1911765 29.0441176,18.8382353 C29.8088235,19.6617647 30.0441176,20.8970588 29.6323529,21.9558824 C29.1029412,23.3088235 28.3382353,24.6029412 27.4558824,25.7205882 C26.75,26.6029412 25.5735294,27.0147059 24.5147059,26.7794118 C23.4558824,26.5441176 22.3970588,26.7205882 21.4558824,27.25 C20.5147059,27.7794118 19.8676471,28.6617647 19.5147059,29.6617647 C19.1617647,30.7794118 18.2205882,31.5441176 17.1029412,31.7205882 C16.3970588,31.7794118 15.6323529,31.8382353 14.9264706,31.8382353 C14.2205882,31.8382353 13.4558824,31.7794118 12.75,31.6617647 C11.6323529,31.4852941 10.6911765,30.7205882 10.3382353,29.6029412 C9.69117647,27.4852941 7.51470588,26.25 5.33823529,26.7205882 C4.22058824,26.9558824 3.10294118,26.5441176 2.39705882,25.6617647 C1.51470588,24.4852941 0.75,23.25 0.220588235,21.8970588 C-0.191176471,20.8382353 0.0441176471,19.6029412 0.808823529,18.7794118 C2.27941176,17.1911765 2.27941176,14.6617647 0.808823529,13.0147059 C0.0441176471,12.1911765 -0.191176471,10.9558824 0.220588235,9.89705882 C0.75,8.54411765 1.51470588,7.25 2.39705882,6.13235294 C3.10294118,5.25 4.27941176,4.83823529 5.39705882,5.07352941 C6.45588235,5.30882353 7.51470588,5.13235294 8.45588235,4.60294118 C9.39705882,4.07352941 10.0441176,3.19117647 10.3970588,2.19117647 C10.75,1.07352941 11.6911765,0.308823529 12.8088235,0.132352941 C14.2205882,-0.0441176471 15.6911765,-0.0441176471 17.1617647,0.132352941 C18.2794118,0.308823529 19.2205882,1.07352941 19.5735294,2.19117647 C19.8676471,3.19117647 20.5735294,4.07352941 21.5147059,4.60294118 C22.4558824,5.13235294 23.5147059,5.30882353 24.5735294,5.07352941 C25.6911765,4.83823529 26.8676471,5.25 27.5147059,6.13235294 C28.3382353,7.36764706 29.1029412,8.60294118 29.6323529,9.95588235 L29.6323529,9.95588235 Z M27.4558824,10.8382353 C26.9852941,9.72058824 26.3382353,8.60294118 25.5735294,7.66176471 C25.4558824,7.48529412 25.2205882,7.42647059 24.9852941,7.48529412 C23.3970588,7.83823529 21.6911765,7.60294118 20.2794118,6.77941176 C18.8088235,5.95588235 17.75,4.60294118 17.2794118,3.01470588 C17.2205882,2.77941176 17.0441176,2.60294118 16.8088235,2.60294118 C15.5735294,2.42647059 14.3382353,2.42647059 13.1029412,2.60294118 C12.8676471,2.66176471 12.6911765,2.77941176 12.6323529,3.01470588 C12.1617647,4.60294118 11.1029412,5.95588235 9.63235294,6.77941176 C8.22058824,7.60294118 6.51470588,7.83823529 4.86764706,7.48529412 C4.63235294,7.42647059 4.39705882,7.54411765 4.27941176,7.66176471 C3.51470588,8.66176471 2.86764706,9.72058824 2.39705882,10.8382353 C2.33823529,11.0735294 2.33823529,11.3088235 2.51470588,11.4852941 C4.80882353,14.0147059 4.80882353,17.8970588 2.51470588,20.4264706 C2.33823529,20.6029412 2.33823529,20.8382353 2.39705882,21.0147059 C2.86764706,22.1911765 3.51470588,23.25 4.22058824,24.1911765 C4.33823529,24.3676471 4.63235294,24.4264706 4.80882353,24.4264706 C8.16176471,23.6617647 11.5147059,25.6617647 12.5735294,28.8970588 C12.6323529,29.1323529 12.8088235,29.25 13.0441176,29.3088235 C13.6323529,29.3676471 14.2794118,29.4264706 14.8676471,29.4264706 C15.5147059,29.4264706 16.1029412,29.3676471 16.75,29.3088235 C16.9852941,29.25 17.1617647,29.1323529 17.2205882,28.8970588 C17.6911765,27.3088235 18.75,25.9558824 20.2205882,25.1323529 C21.6323529,24.3088235 23.3382353,24.0735294 24.9852941,24.4264706 C25.2205882,24.4852941 25.4558824,24.3676471 25.5735294,24.25 C26.3382353,23.25 26.9852941,22.1911765 27.4558824,21.0735294 C27.5147059,20.8970588 27.5147059,20.6029412 27.3382353,20.4264706 C25.0441176,17.8970588 25.0441176,14.0147059 27.3382353,11.4852941 C27.5147059,11.3088235 27.5147059,11.0735294 27.4558824,10.8382353 Z M14.6911765,21.8382353 C11.4558824,21.8382353 8.80882353,19.1911765 8.80882353,15.9558824 C8.80882353,12.7205882 11.4558824,10.0735294 14.6911765,10.0735294 C17.9264706,10.0735294 20.5735294,12.7205882 20.5735294,15.9558824 C20.5735294,19.1911765 17.9852941,21.8382353 14.6911765,21.8382353 Z M14.6911765,19.4852941 C16.6323529,19.4852941 18.2205882,17.8970588 18.2205882,15.9558824 C18.2205882,14.0147059 16.6323529,12.4264706 14.6911765,12.4264706 C12.75,12.4264706 11.1617647,14.0147059 11.1617647,15.9558824 C11.1617647,17.8970588 12.75,19.4852941 14.6911765,19.4852941 Z" id="Shape"></path>
                </g>
            </g>
        </g>
    </g>
</svg>