<?xml version="1.0" encoding="UTF-8"?>
<svg width="45px" height="45px" viewBox="0 0 45 45" version="1.1" xmlns="http://www.w3.org/2000/svg" xmlns:xlink="http://www.w3.org/1999/xlink">
    <!-- Generator: sketchtool 55.2 (78181) - https://sketchapp.com -->
    <title>4C563BF8-D33B-4F1F-8398-ECBCC8336CBE</title>
    <desc>Created with sketchtool.</desc>
    <g id="hi-fi-(Green)" stroke="none" stroke-width="1" fill="none" fill-rule="evenodd">
        <g id="Book-List_not-logged-in" transform="translate(-1221.000000, -26.000000)">
            <g id="Top-bar_light_not-logged-in">
                <g id="Group-6">
                    <g id="Group-4" transform="translate(1221.000000, 26.000000)">
                        <g id="headshot">
                            <circle id="Oval" fill="#D8D8D8" cx="22.5" cy="22.5" r="22.5"></circle>
                            <path d="M22.2710446,11.1444128 C24.6113137,11.1444128 26.5155522,13.0529401 26.5155522,15.39035 C26.5155522,17.734908 24.6113137,19.6362873 22.2710446,19.6362873 C19.9307755,19.6362873 18.0272518,17.734908 18.0272518,15.39035 C18.0272518,13.0529401 19.9307755,11.1444128 22.2710446,11.1444128 Z M22.2710446,21.7807 C25.7935999,21.7807 28.659965,18.914335 28.659965,15.39035 C28.659965,11.8663651 25.7935999,9 22.2710446,9 C18.7484892,9 15.882839,11.8663651 15.882839,15.39035 C15.882839,18.914335 18.7484892,21.7807 22.2710446,21.7807 L22.2710446,21.7807 Z M32.3976764,34.4255872 L12.1444128,34.4255872 L12.1444128,29.4505496 C12.1444128,28.1924942 12.6369129,26.9630309 13.461797,26.155302 C13.8835315,25.7407156 14.5783212,25.2403526 15.5697547,25.2689448 C16.11658,25.2832409 17.8106661,25.2617967 19.8707319,25.2546487 C22.948679,25.2403526 26.8307809,25.2189085 28.8393809,25.2189085 C31.2840114,25.2189085 32.3976764,27.2132123 32.3976764,29.0645554 L32.3976764,34.4255872 Z M28.8393809,23.0744957 C26.8286365,23.0744957 22.9422458,23.0959398 19.8607247,23.1102359 C17.8156697,23.117384 16.1265872,23.124532 15.5990617,23.124532 C15.5969173,23.124532 15.5940581,23.124532 15.5911989,23.124532 C14.2630926,23.1030879 12.9707265,23.632043 11.9599933,24.6256209 C10.7326744,25.8264921 10,27.6277988 10,29.4505496 L10,35.4977936 C10,36.0839331 10.4796337,36.57 11.0722064,36.57 L33.4698828,36.57 C34.0617407,36.57 34.5420892,36.0839331 34.5420892,35.4977936 L34.5420892,29.0645554 C34.5420892,26.1624501 32.5434965,23.0744957 28.8393809,23.0744957 L28.8393809,23.0744957 Z" id="4F" fill="#FFFFFF"></path>
                        </g>
                    </g>
                </g>
            </g>
        </g>
    </g>
</svg>