<?xml version="1.0" encoding="UTF-8"?>
<svg width="29px" height="33px" viewBox="0 0 29 33" version="1.1" xmlns="http://www.w3.org/2000/svg" xmlns:xlink="http://www.w3.org/1999/xlink">
    <!-- Generator: sketchtool 55.2 (78181) - https://sketchapp.com -->
    <title>DB7AD44C-8A44-499C-8FBE-D5C01DFEE86B</title>
    <desc>Created with sketchtool.</desc>
    <g id="hi-fi-(Green)" stroke="none" stroke-width="1" fill="none" fill-rule="evenodd">
        <g id="Dashboard_checked-out" transform="translate(-61.000000, -541.000000)" fill="#000000">
            <g id="dashboard_normal" transform="translate(61.000000, 541.000000)">
                <path d="M14.4964789,2.53331605 C17.2611711,2.53331605 19.5107558,4.78796733 19.5107558,7.54928183 C19.5107558,10.3190407 17.2611711,12.5652476 14.4964789,12.5652476 C11.7317866,12.5652476 9.48304641,10.3190407 9.48304641,7.54928183 C9.48304641,4.78796733 11.7317866,2.53331605 14.4964789,2.53331605 Z M14.4964789,15.0985637 C18.6578727,15.0985637 22.0440718,11.7123645 22.0440718,7.54928183 C22.0440718,3.38619912 18.6578727,-3.19744231e-14 14.4964789,-3.19744231e-14 C10.335085,-3.19744231e-14 6.94973036,3.38619912 6.94973036,7.54928183 C6.94973036,11.7123645 10.335085,15.0985637 14.4964789,15.0985637 L14.4964789,15.0985637 Z M26.4596417,30.036684 L2.53331605,30.036684 L2.53331605,24.1593907 C2.53331605,22.6731786 3.1151343,21.2207441 4.08961654,20.2665284 C4.58783536,19.776754 5.40862976,19.1856469 6.57986622,19.2194244 C7.22586181,19.2363132 9.22718149,19.21098 11.6608538,19.2025356 C15.2970067,19.1856469 19.8831532,19.1603137 22.2560259,19.1603137 C25.1440062,19.1603137 26.4596417,21.5162976 26.4596417,23.7033938 L26.4596417,30.036684 Z M22.2560259,16.6269977 C19.8806199,16.6269977 15.2894068,16.6523308 11.6490316,16.6692196 C9.23309256,16.677664 7.23768395,16.6861084 6.6144882,16.6861084 C6.61195489,16.6861084 6.60857713,16.6861084 6.60519938,16.6861084 C5.0362323,16.6607752 3.50948717,17.2856598 2.31545087,18.4594296 C0.86554965,19.8780866 -3.37507799e-14,22.0060721 -3.37507799e-14,24.1593907 L-3.37507799e-14,31.303342 C-3.37507799e-14,31.9957817 0.566618356,32.57 1.26665802,32.57 L27.7262997,32.57 C28.4254949,32.57 28.9929577,31.9957817 28.9929577,31.303342 L28.9929577,23.7033938 C28.9929577,20.2749728 26.6319072,16.6269977 22.2560259,16.6269977 L22.2560259,16.6269977 Z" id="4F"></path>
            </g>
        </g>
    </g>
</svg>